# xmcd
#
# Track frame offsets:
#  150
#  13949
#  29491
#  40483
#  52303
#  68158
#  78522
#  89467
#  102779
#  117564
#  128148
#  141334
#  156809
#  179810
#  192867
#  203449
#  214817
#  225679
#  239735
#  251933
#  264171
#  278119
#
# Disc length: 3869 seconds
#
# Revision: 0
# Processed by: cddbd v1.5.1PL2 Copyright (c) Steve Scherf et al.
# Submitted via: Collectorz.com_Music_Collector 6.9
#
DISCID=530f1b16
DTITLE=Sheb Wooley - 22 Best of the Best
DYEAR=2004
DGENRE=Comedy - Country
TTITLE0=Fifteen Beers Ago
TTITLE1=10 Little Bottles
TTITLE2=Sunday Morning Falling Down
TTITLE3=That's My Pa
TTITLE4=Almost Persuaded #2
TTITLE5=Hello Walls #2
TTITLE6=Help Me Fake It Through The Night
TTITLE7=Little Green Apples #2
TTITLE8=Harper Valley PTA (Later That Same Day)
TTITLE9=Purple People Eater
TTITLE10=Shaky Breaky Car
TTITLE11=Detroit City #2
TTITLE12=I Walk The Line #2
TTITLE13=Green Green Grass Of Home #2
TTITLE14=D-I-V-O-R-C-E #2
TTITLE15=Runnin' Bare
TTITLE16=Easy Loving #2
TTITLE17=The Games People Play
TTITLE18=Rollin' In My Sweet Baby's Arms
TTITLE19=Folsom Prison Blues
TTITLE20=Ode To The Little Brown Shack Out Back
TTITLE21=Ruby Please Bring Your Love To Town
EXTD=
EXTT0=
EXTT1=
EXTT2=
EXTT3=
EXTT4=
EXTT5=
EXTT6=
EXTT7=
EXTT8=
EXTT9=
EXTT10=
EXTT11=
EXTT12=
EXTT13=
EXTT14=
EXTT15=
EXTT16=
EXTT17=
EXTT18=
EXTT19=
EXTT20=
EXTT21=
PLAYORDER=
